<svg id="facebook" xmlns="http://www.w3.org/2000/svg" width="41.691" height="41.691" viewBox="0 0 41.691 41.691">
  <g id="Group_114" data-name="Group 114">
    <path id="Path_92" data-name="Path 92" d="M36.48,0H5.211A5.217,5.217,0,0,0,0,5.211V36.48a5.217,5.217,0,0,0,5.211,5.211H20.846V27.36H15.634V20.846h5.211V15.634a7.817,7.817,0,0,1,7.817-7.817h5.211v6.514H31.269c-1.438,0-2.606-.135-2.606,1.3v5.211h6.514L32.571,27.36H28.663V41.691H36.48a5.217,5.217,0,0,0,5.211-5.211V5.211A5.217,5.217,0,0,0,36.48,0Z" fill="#fff"/>
  </g>
</svg>
