<svg xmlns="http://www.w3.org/2000/svg" width="32.785" height="32.786" viewBox="0 0 32.785 32.786">
  <g id="maintenance" transform="translate(-0.5 0)">
    <path id="Path_11814" data-name="Path 11814" d="M9,9.863l4.5,4.5L14.854,13l-4.5-4.5V4.9L3.575.008.5,3.083,5.389,9.863Zm0,0" transform="translate(0 -0.007)" fill="#fff"/>
    <path id="Path_11815" data-name="Path 11815" d="M23.448,1.687A5.91,5.91,0,0,0,22.3,8.27L8.771,21.8a5.89,5.89,0,0,0-6.584,1.149,5.776,5.776,0,0,0-1.127,6.56L4.9,25.665l2.717,2.717L3.779,32.225A5.763,5.763,0,0,0,10.338,31.1a5.905,5.905,0,0,0,1.151-6.583L25.014,10.988A5.9,5.9,0,0,0,31.6,9.837a5.772,5.772,0,0,0,1.127-6.559L28.882,7.12,26.165,4.4,30.008.56A5.773,5.773,0,0,0,23.448,1.687Zm0,0" transform="translate(-0.001 0)" fill="#fff"/>
    <path id="Path_11816" data-name="Path 11816" d="M266.984,270.568l4.072-4.072,1.364,1.364-4.073,4.072Zm0,0" transform="translate(-249.42 -249.43)" fill="#fff"/>
    <path id="Path_11817" data-name="Path 11817" d="M318.506,322.094l-8.92-8.92,4.073-4.072,8.92,8.919Zm0,0" transform="translate(-289.293 -289.308)" fill="#fff"/>
  </g>
</svg>
