<svg id="circus-tent-1407554" xmlns="http://www.w3.org/2000/svg" width="43.074" height="39.122" viewBox="0 0 43.074 39.122">
  <path id="Path_11798" data-name="Path 11798" d="M5.832,48.073h33.41v-9.52h4.832c-.984-.94-12.046-3.326-13.261-18.329V15.312h3.964l-1.391-1.642,1.391-1.642H29.972v8.142c-1.687,8-13.163,8-14.865.021v-4.88h3.964L17.68,13.671l1.391-1.642h-4.8V20.24c-.5,6.132-1.825,12.533-11.69,17.517L1,38.553H5.832Zm27.129-33.6H30.813v-1.6h2.149l-.678.8Zm-15.707,0H15.107v-1.6h2.149l-.678.8ZM6.674,38.553H9.105v8.678H6.674V38.553Zm9.844-14.035a8.827,8.827,0,0,0,1.18.987c-.713,5.379-2.387,9.162-5.406,12.206H8.762A19.158,19.158,0,0,0,16.518,24.518Zm8.213,2.234a29.257,29.257,0,0,0,2.823,10.96H25.085a65.489,65.489,0,0,1-1.113-10.8C24.309,26.856,24.688,26.763,24.731,26.752ZM26.594,26c.714,4.971,2.329,8.73,5.03,11.71H28.511c-1.581-2.844-2.525-6.429-2.959-11.232A10.055,10.055,0,0,0,26.594,26Zm1.963-1.483a19.129,19.129,0,0,0,7.759,13.193H32.783c-3.018-3.045-4.693-6.827-5.406-12.207A8.383,8.383,0,0,0,28.557,24.519Zm-16.2,14.034v8.678H9.947V38.553ZM18.481,26a9.541,9.541,0,0,0,1.046.479c-.439,4.807-1.384,8.391-2.959,11.229H13.451C16.152,34.732,17.767,30.974,18.481,26ZM16.451,45.246c1.973-1.068,3.7-3.425,4.894-6.692h.539c-.815,4.875-2.985,8.306-5.433,8.614V45.246Zm12.171-.125v2.022c-3.033-.606-4.68-5.368-5.216-8.588h.542C24.863,41.037,26.349,43.766,28.622,45.12Zm0-6.567v5.565a12.257,12.257,0,0,1-3.772-5.564Zm-8.173,0a11.7,11.7,0,0,1-4,5.713V38.553Zm-7.25,0H15.61v8.678H13.2Zm9.446.543c.522,2.832,1.785,6.472,4.15,8.135H18.483C20.4,45.894,21.932,42.971,22.646,39.1Zm6.818-.543h2.411v8.678H29.464Zm3.252,0h2.411v8.678H32.716Zm-15.191-.841a29.358,29.358,0,0,0,2.823-10.958c.043.012.423.1.756.161a65.49,65.49,0,0,1-1.113,10.8ZM38.4,47.232H35.969V38.553H38.4Zm2.235-9.52H37.777c-6.352-4.241-7.878-9.468-8.5-14.054a8.465,8.465,0,0,0,.884-1.443C30.815,27.5,32.7,33.186,40.636,37.712Zm-17.5-10.694a66.98,66.98,0,0,0,1.09,10.694H20.851a66.971,66.971,0,0,0,1.09-10.695A8.385,8.385,0,0,0,23.134,27.017ZM4.439,37.712c7.935-4.526,9.822-10.21,10.473-15.488a8.292,8.292,0,0,0,.88,1.438c-.62,4.584-2.149,9.809-8.491,14.05Z" transform="translate(-1 -8.951)" fill="#fff"/>
  <path id="Path_11799" data-name="Path 11799" d="M14.834,21.134l1.279,1.44L17.354,21.1l.956,1.077.629-.559-1.6-1.8L16.1,21.288l-1.279-1.44-1.554,1.846.643.542Z" transform="translate(-7.644 -13.17)" fill="#fff"/>
  <path id="Path_11800" data-name="Path 11800" d="M9.043,6.952,9.68,6.4,8.739,5.313l-.624.721-.623-.721L6.55,6.4l.636.55L7.492,6.6l.623.721L8.739,6.6Z" transform="translate(-4.007 -5.313)" fill="#fff"/>
  <path id="Path_11801" data-name="Path 11801" d="M10.5,13.111l.916,1.06.917-1.06.6.692.637-.55-1.235-1.428-.917,1.06-.916-1.06L9.27,13.253l.637.55Z" transform="translate(-5.48 -8.841)" fill="#fff"/>
  <rect id="Rectangle_161319" data-name="Rectangle 161319" width="0.841" height="1.431" transform="translate(21.659 4.157)" fill="#fff"/>
  <rect id="Rectangle_161320" data-name="Rectangle 161320" width="1.414" height="0.842" transform="translate(19.513 5.079) rotate(45.685)" fill="#fff"/>
  <rect id="Rectangle_161321" data-name="Rectangle 161321" width="1.397" height="0.841" transform="translate(18.026 7.889)" fill="#fff"/>
  <rect id="Rectangle_161322" data-name="Rectangle 161322" width="0.842" height="1.414" transform="matrix(0.716, 0.699, -0.699, 0.716, 19.9, 9.94)" fill="#fff"/>
  <rect id="Rectangle_161323" data-name="Rectangle 161323" width="0.841" height="1.431" transform="translate(21.659 11.031)" fill="#fff"/>
  <rect id="Rectangle_161324" data-name="Rectangle 161324" width="1.414" height="0.842" transform="translate(24.259 9.94) rotate(45.685)" fill="#fff"/>
  <rect id="Rectangle_161325" data-name="Rectangle 161325" width="1.397" height="0.841" transform="translate(24.738 7.889)" fill="#fff"/>
  <rect id="Rectangle_161326" data-name="Rectangle 161326" width="0.842" height="1.414" transform="matrix(0.716, 0.699, -0.699, 0.716, 24.646, 5.079)" fill="#fff"/>
  <path id="Path_11802" data-name="Path 11802" d="M48.818,21.071a2.01,2.01,0,1,0-2.01,2.01A2.012,2.012,0,0,0,48.818,21.071Zm-2.01,1.169a1.169,1.169,0,1,1,1.169-1.169A1.17,1.17,0,0,1,46.808,22.239Z" transform="translate(-24.728 -12.761)" fill="#fff"/>
  <rect id="Rectangle_161327" data-name="Rectangle 161327" width="2.043" height="0.841" transform="translate(30.827 12.125)" fill="#fff"/>
  <rect id="Rectangle_161328" data-name="Rectangle 161328" width="1.006" height="0.841" transform="translate(34.021 12.125)" fill="#fff"/>
  <path id="Path_11803" data-name="Path 11803" d="M73.182,26.825H78.7V26.4a2.456,2.456,0,0,0-3.238-2.325,3.959,3.959,0,0,0-7.757.393l.833.119a3.117,3.117,0,0,1,6.186.147l.068.689.58-.377a1.618,1.618,0,0,1,2.433.934H73.182Z" transform="translate(-37.14 -13.858)" fill="#fff"/>
</svg>
