<svg xmlns="http://www.w3.org/2000/svg" width="39.801" height="29.528" viewBox="0 0 39.801 29.528">
  <g id="tent-1629077" transform="translate(-1 -9.002)">
    <path id="Path_11804" data-name="Path 11804" d="M40.159,37.246h-.642V31.469a.642.642,0,1,0-1.284,0v.289C37.3,31,36.365,30.2,35.46,29.363a55.092,55.092,0,0,1-12.447-16.8L21.491,9.392a.642.642,0,0,0-1.181,0l-1.521,3.171a55.6,55.6,0,0,1-7.453,11.555l-.591.693c-.591.687-1.207,1.355-1.83,2.009q-1.284,1.284-2.568,2.523c-.912.841-1.842,1.656-2.78,2.414v-.289a.642.642,0,1,0-1.284,0v5.778H1.642a.642.642,0,1,0,0,1.284H40.159a.642.642,0,1,0,0-1.284Zm-1.926,0H35.665v-5.97c.841.745,1.7,1.476,2.568,2.118ZM3.568,33.395c.867-.642,1.727-1.367,2.568-2.112v5.964H3.568Zm24.189,3.852H13.531l-2.215-5.54a.642.642,0,0,1,.116-.642l8.827-10.1.109-.122a.989.989,0,0,1,.109-.122h.09l.09-.032h.064a.533.533,0,0,1,.225,0h0a.411.411,0,0,1,.116.039.456.456,0,0,1,.1.051.1.1,0,0,1,.051.039l.077.071.051.064h0l.1.109,8.929,9.989a.642.642,0,0,1,.116.642L28.27,37.246Z" fill="#fff"/>
    <path id="Path_11805" data-name="Path 11805" d="M39.489,44.683,41.3,40.15,34.95,32.89Z" transform="translate(-12.156 -8.553)" fill="#fff"/>
    <path id="Path_11806" data-name="Path 11806" d="M20.97,44.683,25.509,32.89,19.16,40.15Z" transform="translate(-6.502 -8.553)" fill="#fff"/>
  </g>
</svg>
