<svg xmlns="http://www.w3.org/2000/svg" width="43.889" height="26.715" viewBox="0 0 43.889 26.715">
  <g id="camp-2290554" transform="translate(-9 -18)">
    <g id="_1-tribe_camp_adventure_tent_outdoor" data-name="1-tribe, camp, adventure, tent, outdoor" transform="translate(9 18)">
      <path id="Path_11807" data-name="Path 11807" d="M52.889,43.761a.954.954,0,0,1-.954.954H9.954A.954.954,0,0,1,9,43.761C9,29.554,18.846,18,30.944,18S52.889,29.554,52.889,43.761Zm-7.633-.954h5.725c-.315-9.636-5.457-17.813-12.623-21.21C42.394,25.9,45.065,33.676,45.256,42.807Zm-13.357,0H43.348C43.1,30.709,38.138,20.862,31.9,19.985Zm-1.908,0V37.321L26.26,42.807Zm0-9.541V19.985c-6.23.878-11.192,10.724-11.449,22.822h5.725a1.078,1.078,0,0,1,0-.172V34.22a.954.954,0,0,1,.954-.954Zm-3.816,6.268,2.967-4.36H26.174Zm-9.541,3.273C16.814,33.676,19.5,25.9,23.541,21.6c-7.156,3.4-12.3,11.573-12.632,21.21Z" transform="translate(-9 -18)" fill="#fff"/>
      <path id="Path_11808" data-name="Path 11808" d="M52.392,42.98H46.668c-.181-9.131-2.862-16.907-6.908-21.21C46.916,25.167,52.058,33.343,52.392,42.98Z" transform="translate(-10.412 -18.173)" fill="#77cddb"/>
      <path id="Path_11809" data-name="Path 11809" d="M44.449,42.9H33V20.08C39.23,20.958,44.192,30.8,44.449,42.9Z" transform="translate(-10.101 -18.095)" fill="#6d96f2"/>
      <path id="Path_11810" data-name="Path 11810" d="M30.821,38.25v5.486H27.09Z" transform="translate(-9.83 -18.929)" fill="#ee6530"/>
      <path id="Path_11811" data-name="Path 11811" d="M30.449,20.08V33.361H25.679a.954.954,0,0,0-.954.954V42.73a1.078,1.078,0,0,0,0,.172H19C19.258,30.8,24.219,20.958,30.449,20.08Z" transform="translate(-9.459 -18.095)" fill="#6d96f2"/>
      <path id="Path_11812" data-name="Path 11812" d="M29.967,36,27,40.36V36Z" transform="translate(-9.826 -18.826)" fill="#f8bd34"/>
      <path id="Path_11813" data-name="Path 11813" d="M23.642,21.77c-4.055,4.3-6.726,12.079-6.917,21.21H11C11.334,33.343,16.477,25.167,23.642,21.77Z" transform="translate(-9.092 -18.173)" fill="#77cddb"/>
    </g>
  </g>
</svg>
