<svg xmlns="http://www.w3.org/2000/svg" width="35.848" height="29.848" viewBox="0 0 35.848 29.848">
  <g id="diamond-2807245" transform="translate(-3.5 -12)">
    <path id="Path_11818" data-name="Path 11818" d="M19.795,47.175,11.563,28H3.5Z" transform="translate(0 -5.937)" fill="#0b3c26"/>
    <path id="Path_11819" data-name="Path 11819" d="M35.377,20.8,29.51,12H24.768L18.9,20.8Z" transform="translate(-5.715 0)" fill="#0b3c26"/>
    <path id="Path_11820" data-name="Path 11820" d="M35.48,28H18.5l8.49,19.785Z" transform="translate(-5.566 -5.937)" fill="#0b3c26"/>
    <path id="Path_11821" data-name="Path 11821" d="M42.822,28,34.59,47.175,50.885,28Z" transform="translate(-11.537 -5.937)" fill="#0b3c26"/>
    <path id="Path_11822" data-name="Path 11822" d="M11.691,20.8,17.558,12H10.552a.629.629,0,0,0-.5.245L3.54,20.8Zm19.5,0h8.176l-6.541-8.559a.629.629,0,0,0-.5-.245H25.319Z" transform="translate(-0.015)" fill="#0b3c26"/>
  </g>
</svg>
