<svg xmlns="http://www.w3.org/2000/svg" width="40.584" height="38.553" viewBox="0 0 40.584 38.553">
  <g id="Layer_1" data-name="Layer 1" transform="translate(0 -4.203)">
    <path id="Path_11779" data-name="Path 11779" d="M64.943,100.686H62.936a.485.485,0,0,0,0,.966h2.007a.485.485,0,0,0,0-.966Zm-14.494,0H48.442a.485.485,0,0,0,0,.966h2.007a.485.485,0,0,0,0-.966Zm11.075,0H51.861a.483.483,0,1,0,0,.966h3.851v.483H53.794a.483.483,0,1,0,0,.966h6.039a.483.483,0,1,0,0-.966h-2.16v-.483h3.851a.483.483,0,0,0,0-.966ZM56.21,86.67h.966a.967.967,0,0,0,.966-.967v-.967a.967.967,0,0,0-.966-.967H56.21a.967.967,0,0,0-.966.967V85.7A.967.967,0,0,0,56.21,86.67Zm0-1.933h.966V85.7H56.21Z" transform="translate(-36.401 -60.346)" fill="#0b8dce"/>
    <path id="Path_11780" data-name="Path 11780" d="M24.094,46.863a.483.483,0,1,0,.777.575L25.932,46v3.8a.483.483,0,1,0,.966,0V46l1.061,1.434a.483.483,0,1,0,.777-.575L26.9,44.379V41.8l1.061,1.434a.483.483,0,1,0,.777-.575L26.9,40.172V37.735l1.061,1.434a.483.483,0,0,0,.777-.575L26.8,35.982a.5.5,0,0,0-.777,0l-1.933,2.613a.483.483,0,1,0,.777.575l1.061-1.434v2.437l-1.838,2.484a.483.483,0,0,0,.777.575L25.932,41.8v2.581Zm24.157,0a.483.483,0,1,0,.777.575L50.089,46v3.8a.483.483,0,1,0,.966,0V46l1.061,1.434a.5.5,0,0,0,.675.1.484.484,0,0,0,.1-.676l-1.838-2.485V41.8l1.061,1.434a.492.492,0,0,0,.675.1.484.484,0,0,0,.1-.676l-1.838-2.484V37.735l1.061,1.434a.5.5,0,0,0,.676.1.483.483,0,0,0,.1-.676L50.96,35.982a.5.5,0,0,0-.776,0l-1.933,2.613a.483.483,0,1,0,.776.575l1.061-1.435v2.438l-1.838,2.484a.483.483,0,1,0,.776.575L50.089,41.8v2.581Z" transform="translate(-18.202 -23.962)" fill="#eaa712"/>
    <circle id="Ellipse_437" data-name="Ellipse 437" cx="0.483" cy="0.483" r="0.483" transform="translate(0 38.408)" fill="#2d4856"/>
    <path id="Path_11781" data-name="Path 11781" d="M7.208,145.8H6.483a.483.483,0,1,0,0,.966h.725a.483.483,0,1,0,0-.966Zm35.994,0h-.725a.483.483,0,0,0,0,.966H43.2a.483.483,0,0,0,0-.966Z" transform="translate(-4.551 -107.389)" fill="#2d4856"/>
    <circle id="Ellipse_438" data-name="Ellipse 438" cx="0.483" cy="0.483" r="0.483" transform="translate(39.617 38.408)" fill="#2d4856"/>
    <path id="Path_11782" data-name="Path 11782" d="M47.787,72.958H47.13v-4.01a.483.483,0,0,0-.966,0v3L32.276,52.673l1.7-2.131a.483.483,0,1,0-.754-.6L31.67,51.883l-1.556-1.945a.483.483,0,0,0-.754.6l1.7,2.131L17.175,71.943v-3a.483.483,0,0,0-.966,0v4.01h-.657a.487.487,0,1,0,0,.966H47.787a.487.487,0,1,0,0-.966Zm-30.15,0,10.2-14.151c-.3.553-7.467,13.9-7.595,14.151Zm15.965,0H29.737V65.225a1.933,1.933,0,0,1,3.865,0Zm.966,0V65.225a2.9,2.9,0,1,0-5.8,0v7.733H21.364l.775-1.449.517-.969L31.67,53.683,40.683,70.54l.517.969.775,1.449Zm8.532,0c-.135-.275-7-13.045-7.489-13.953a2.033,2.033,0,0,0-.1-.191c.244.338,8.032,11.148,10.192,14.144Z" transform="translate(-11.378 -34.55)" fill="#fff"/>
    <path id="Path_11783" data-name="Path 11783" d="M51.181,135.787v.969H44.55l.517-.969Zm12.429.969H56.979v-.969h6.114Z" transform="translate(-33.788 -99.797)" fill="#0b8dce"/>
    <path id="Path_11784" data-name="Path 11784" d="M18.6,14.239a.725.725,0,1,0-.725-.725A.725.725,0,0,0,18.6,14.239Zm0-1.087a.362.362,0,1,1-.362.362A.362.362,0,0,1,18.6,13.152Zm26.177,8.656a.483.483,0,1,0,.483.483A.483.483,0,0,0,44.776,21.808Zm0,.725a.242.242,0,1,1,.242-.242A.242.242,0,0,1,44.776,22.533ZM29.309,15.044a.483.483,0,1,0,.483.483A.483.483,0,0,0,29.309,15.044Zm0,.725a.242.242,0,1,1,.242-.242A.242.242,0,0,1,29.309,15.769ZM43.8,7.8a.483.483,0,1,0,.483.483A.483.483,0,0,0,43.8,7.8Zm0,.725a.242.242,0,1,1,.242-.242A.242.242,0,0,1,43.8,8.522ZM8.3,21.083a.483.483,0,1,0-.483.483.483.483,0,0,0,.483-.483Zm-.725,0a.242.242,0,1,1,.242.242A.242.242,0,0,1,7.575,21.083Z" transform="translate(-5.562 -2.726)" fill="#2d4856"/>
    <path id="Path_11785" data-name="Path 11785" d="M9.455,6.967l.359-.472-.227-.129-.23.529H9.349L9.115,6.37,8.884,6.5l.356.461v.007L8.684,6.9v.257l.559-.072v.007l-.359.461.215.136.246-.533h.007l.227.529.238-.136L9.455,7.1V7.088l.571.068V6.9l-.571.075V6.967ZM22.791,4.621l-.207.265.124.078.142-.307h0l.131.3.137-.078-.209-.261v0l.329.039V4.51l-.329.043v0l.207-.272L22.989,4.2l-.133.3h0l-.135-.3-.133.076.2.265v0l-.32-.041v.148l.322-.041ZM44.1,14.182V13.93l-.56.074V14l.352-.463-.222-.126-.226.519H43.44l-.23-.516-.226.13.349.452V14l-.545-.071v.252l.549-.071v.007l-.352.452.211.134.241-.523h.007l.222.519.234-.133-.356-.445v-.007l.56.067ZM34.789,7.387l.3-.4L34.9,6.878l-.195.448H34.7l-.2-.444-.2.112.3.39V7.39l-.47-.061v.217l.473-.061v.006l-.3.39L34.488,8l.208-.451H34.7l.192.448.2-.115L34.789,7.5V7.489l.483.057V7.329l-.483.064V7.387Z" transform="translate(-6.586)" fill="#0b8dce"/>
  </g>
</svg>
