<svg id="undraw_camping_noc8" xmlns="http://www.w3.org/2000/svg" width="395.879" height="306.5" viewBox="0 0 395.879 306.5">
  <path id="Path_11735" data-name="Path 11735" d="M914.235,445.544l8.657-8.662a154.158,154.158,0,0,0-3.331-17.052l-4.934,2.5,4.432-4.435c-1.837-6.928-3.492-11.4-3.492-11.4S898.12,424.262,889.1,445.1l5.587,14.688-7.644-9.442a62.369,62.369,0,0,0-2.143,7.538c-5.517,25.781-1.57,48.482,8.817,50.7s23.279-16.875,28.8-42.656c1.71-7.992,1.692-16.741.853-25.01Z" transform="translate(-565.408 -271.586)" fill="#e6e6e6"/>
  <path id="Path_11736" data-name="Path 11736" d="M946.153,496.875l11.888-2.94A154.151,154.151,0,0,0,964,477.616l-5.514-.412,6.087-1.505c2.008-6.88,2.9-11.563,2.9-11.563s-24.119,6.192-42.608,19.367l-2.809,15.462L920.4,486.929a62.359,62.359,0,0,0-5.731,5.345c-18.049,19.218-26.4,40.692-18.662,47.963s28.651-2.413,46.7-21.63c5.6-5.958,10.1-13.457,13.657-20.969Z" transform="translate(-571.6 -304.926)" fill="#e6e6e6"/>
  <path id="Path_11737" data-name="Path 11737" d="M688.7,206.407l2.921-22.922a290.847,290.847,0,0,0-24.657-21.6l-4.48,9.423,1.5-11.736c-10.74-8.219-18.373-12.981-18.373-12.981s-5.526,46.66,5.07,88.167l25.3,15.471-22.31-5.267a117.669,117.669,0,0,0,5.5,13.725c21.53,44.847,53.63,74.171,71.7,65.5s15.261-52.061-6.268-96.908c-6.674-13.9-16.8-26.939-27.6-38.311Z" transform="translate(-427.604 -121.254)" fill="#e6e6e6"/>
  <path id="Path_11738" data-name="Path 11738" d="M816.979,180.9l14.348-18.113a290.859,290.859,0,0,0-9.94-31.24l-8.706,5.751,7.346-9.274c-4.946-12.587-9.018-20.609-9.018-20.609s-28.849,37.087-41.234,78.1l13.657,26.32-16.376-16.041a117.661,117.661,0,0,0-2.383,14.594c-4.751,49.52,7.57,91.215,27.52,93.129s39.975-36.678,44.726-86.2c1.473-15.352-.459-31.746-3.824-47.063Z" transform="translate(-496.72 -98.599)" fill="#e6e6e6"/>
  <path id="Path_11739" data-name="Path 11739" d="M186.249,223.844,184.8,199.793a303.282,303.282,0,0,0-29.451-17.355l-2.764,10.523-.743-12.314c-12.6-6.338-21.34-9.738-21.34-9.738s3.384,48.878,22.287,89.35L181.7,271.206l-23.879-1.071a122.692,122.692,0,0,0,8.3,13c30.752,41.775,69.326,65.6,86.156,53.206s5.544-56.3-25.209-98.073c-9.534-12.951-22.438-24.343-35.706-33.9Z" transform="translate(-130.499 -135.322)" fill="#e6e6e6"/>
  <path id="Path_11740" data-name="Path 11740" d="M338.879,160.632l11.19-21.339a303.3,303.3,0,0,0-16.241-30.08l-7.805,7.58,5.729-10.926C324.244,93.93,318.517,86.5,318.517,86.5s-22.368,43.59-27.106,88.007l19.1,24.318-19.888-13.26a122.705,122.705,0,0,0,.388,15.415c4.732,51.657,25.439,91.988,46.251,90.081s33.846-45.328,29.114-96.985c-1.467-16.014-6.625-32.437-13.042-47.477Z" transform="translate(-223.062 -86.5)" fill="#e6e6e6"/>
  <ellipse id="Ellipse_426" data-name="Ellipse 426" cx="14.756" cy="4.216" rx="14.756" ry="4.216" transform="translate(163.661 281.626)" fill="#e6e6e6"/>
  <ellipse id="Ellipse_427" data-name="Ellipse 427" cx="14.756" cy="4.216" rx="14.756" ry="4.216" transform="translate(324.289 298.068)" fill="#e6e6e6"/>
  <ellipse id="Ellipse_428" data-name="Ellipse 428" cx="14.756" cy="4.216" rx="14.756" ry="4.216" transform="translate(355.065 263.497)" fill="#e6e6e6"/>
  <ellipse id="Ellipse_429" data-name="Ellipse 429" cx="11.172" cy="3.192" rx="11.172" ry="3.192" transform="translate(298.15 253.319)" fill="#e6e6e6"/>
  <ellipse id="Ellipse_430" data-name="Ellipse 430" cx="7.378" cy="2.289" rx="7.378" ry="2.289" transform="translate(59.948 252.114)" fill="#e6e6e6"/>
  <ellipse id="Ellipse_431" data-name="Ellipse 431" cx="7.378" cy="2.289" rx="7.378" ry="2.289" transform="translate(30.858 277.832)" fill="#e6e6e6"/>
  <ellipse id="Ellipse_432" data-name="Ellipse 432" cx="7.378" cy="2.289" rx="7.378" ry="2.289" transform="translate(30.858 237.358)" fill="#e6e6e6"/>
  <path id="Path_11741" data-name="Path 11741" d="M543.95,464.94l-71.486-2.53-37.7,3.6-64.407,6.143-24.238,2.31-56.131,18.719a1.256,1.256,0,0,1-1.573-1.636l0,0,9.735-25.747-1.024-.755-26.788-19.684-.143-.105-34.735-5.3a2.913,2.913,0,0,1-1.948-4.545l52.9-75.913,27.8-39.883,3.014-4.33,115.644-1.6L545.784,461.391a2.209,2.209,0,0,1-1.834,3.55Z" transform="translate(-189.782 -217.905)" fill="#083aa9"/>
  <path id="Path_11742" data-name="Path 11742" d="M265.067,242.945,217.875,386.539,191.09,366.855,207.165,281l27.719-39.979.079.093Z" transform="translate(-110.527 -139.406)" opacity="0.2"/>
  <path id="Path_11743" data-name="Path 11743" d="M373.545,428.25c-5.355,12.873-7.251,23.625-13.6,21.683-8.7-2.658.435-12.061,5.789-24.933s9.138-22.747,13.6-21.683C387.657,405.3,378.9,415.377,373.545,428.25Z" transform="translate(-261.13 -269.703)" fill="#3f3d56"/>
  <path id="Path_11744" data-name="Path 11744" d="M396.118,391.032a6.487,6.487,0,0,0-6.5-6.477c-.146,0-.291.007-.435.017l-6.122-.755a6.472,6.472,0,0,0-2.189-.376c-.206,0-.409.011-.61.03l-.236-.029-.006.058a6.488,6.488,0,0,0-1.371,12.521l-.013.117.6.068a6.5,6.5,0,0,0,1.655.211c.062,0,.123,0,.185,0l6.258.7a6.472,6.472,0,0,0,2.3.418,6.542,6.542,0,0,0,.877-.062l.534.06,0-.156a6.488,6.488,0,0,0,5.063-6.339Z" transform="translate(-271.571 -258.252)" fill="#6c63ff"/>
  <path id="Path_11745" data-name="Path 11745" d="M396.118,391.032a6.487,6.487,0,0,0-6.5-6.477c-.146,0-.291.007-.435.017l-6.122-.755a6.472,6.472,0,0,0-2.189-.376c-.206,0-.409.011-.61.03l-.236-.029-.006.058a6.488,6.488,0,0,0-1.371,12.521l-.013.117.6.068a6.5,6.5,0,0,0,1.655.211c.062,0,.123,0,.185,0l6.258.7a6.472,6.472,0,0,0,2.3.418,6.542,6.542,0,0,0,.877-.062l.534.06,0-.156a6.488,6.488,0,0,0,5.063-6.339Z" transform="translate(-271.571 -258.252)" fill="#fff" opacity="0.2"/>
  <path id="Path_11746" data-name="Path 11746" d="M219.385,452.617l-.749-.393c19.193-36.581,73.478-114.742,74.024-115.527l.695.483C292.808,337.964,238.553,416.082,219.385,452.617Z" transform="translate(-181.477 -231.215)" fill="#3f3d56"/>
  <path id="Path_11747" data-name="Path 11747" d="M358.741,508.176l-.816-.222c.4-1.454,39.708-145.657,53.358-169.983l.738.414C398.421,362.62,359.136,506.723,358.741,508.176Z" transform="translate(-262.043 -231.952)" fill="#3f3d56"/>
  <path id="Path_11748" data-name="Path 11748" d="M844.372,479.142c-20.958-34.526-100.107-141.453-100.9-142.529l.68-.5c.8,1.076,79.969,108.035,100.947,142.593Z" transform="translate(-485.043 -230.876)" fill="#3f3d56"/>
  <ellipse id="Ellipse_433" data-name="Ellipse 433" cx="2.962" cy="3.808" rx="2.962" ry="3.808" transform="translate(92.201 272.452) rotate(-0.092)" fill="#3f3d56"/>
  <ellipse id="Ellipse_434" data-name="Ellipse 434" cx="2.962" cy="3.808" rx="2.962" ry="3.808" transform="translate(35.126 215.427) rotate(-0.092)" fill="#3f3d56"/>
  <ellipse id="Ellipse_435" data-name="Ellipse 435" cx="2.962" cy="3.808" rx="2.962" ry="3.808" transform="translate(357.141 242.556) rotate(-0.092)" fill="#3f3d56"/>
  <path id="Path_11749" data-name="Path 11749" d="M386.414,281.785l159.625,1.71a49.416,49.416,0,0,0-49.439-49l-60.919.1a49.646,49.646,0,0,0-49.119,45.365Z" transform="translate(-278.521 -172.104)" fill="#3f3d56"/>
  <path id="Path_11750" data-name="Path 11750" d="M631.681,471.814h-58.34a5.362,5.362,0,0,0-5.367,5.43l.051,4.267.518,45.676.008.881.017,1.454.017,1.421.1,8.563a5.371,5.371,0,0,0,5.253,5.308c.143,0,.291,0,.438-.013l13.854-.843,20.043-1.223,7.074-.43,1.577-.1,11.025-.67h0l4.056-.249a5.375,5.375,0,0,0,5.042-5.359V477.181a5.373,5.373,0,0,0-5.367-5.367Z" transform="translate(-383.536 -309.368)" opacity="0.2"/>
  <path id="Path_11751" data-name="Path 11751" d="M632.091,445.267a1.434,1.434,0,0,0-1.062.609l-6.428.01v-1.7a5.373,5.373,0,0,0-5.367-5.367h-58.34a5.362,5.362,0,0,0-5.367,5.43l.021,1.753L551.4,446a1.283,1.283,0,0,0-.871-.4c-1.453,0-2.626,3.176-2.62,7.088s1.189,7.082,2.642,7.079a1.588,1.588,0,0,0,1.218-.812l79.278-.128a1.434,1.434,0,0,0,1.064.605c1.453,0,2.626-3.176,2.62-7.088S633.544,445.265,632.091,445.267Z" transform="translate(-371.932 -290.28)" fill="#6c63ff"/>
  <path id="Path_11752" data-name="Path 11752" d="M632.091,445.267a1.434,1.434,0,0,0-1.062.609l-6.428.01v-1.7a5.373,5.373,0,0,0-5.367-5.367h-58.34a5.362,5.362,0,0,0-5.367,5.43l.021,1.753L551.4,446a1.283,1.283,0,0,0-.871-.4c-1.453,0-2.626,3.176-2.62,7.088s1.189,7.082,2.642,7.079a1.588,1.588,0,0,0,1.218-.812l79.278-.128a1.434,1.434,0,0,0,1.064.605c1.453,0,2.626-3.176,2.62-7.088S633.544,445.265,632.091,445.267Z" transform="translate(-371.932 -290.28)" fill="#fff" opacity="0.2"/>
  <path id="Path_11753" data-name="Path 11753" d="M720.352,653.19h0a3.429,3.429,0,0,1-5.384-.92l-3.172-6.09,1.262-2.734,6.8,4.352a3.429,3.429,0,0,1,.494,5.392Z" transform="translate(-466.724 -408.64)" fill="#ffb8b8"/>
  <path id="Path_11754" data-name="Path 11754" d="M752.755,747.353a2.84,2.84,0,0,0-2.863-2.537,2.875,2.875,0,0,0-2.809,2.178h0l-2.809,13.64a5.516,5.516,0,0,0-.144,1.216c0,3.076,2.574,5.214,5.761,5.214s5.763-2.138,5.763-5.214a5.585,5.585,0,0,0-.2-1.458Z" transform="translate(-485.426 -467.273)" fill="#3f3d56"/>
  <path id="Path_11755" data-name="Path 11755" d="M794.037,753.454a6.444,6.444,0,0,0-.918-.671l-10.731-7.5a2.294,2.294,0,0,0-2.971.154,2.088,2.088,0,0,0-.309,2.655l8.1,10.649a5.639,5.639,0,0,0,.617.724,4.612,4.612,0,0,0,6.231,0C795.747,757.782,795.727,754.782,794.037,753.454Z" transform="translate(-505.461 -467.273)" fill="#3f3d56"/>
  <path id="Path_11756" data-name="Path 11756" d="M817.322,738.954H806.453a1.322,1.322,0,0,0-1.371,1.259,1.437,1.437,0,0,0,1.068,1.414L816.4,744.8a3.028,3.028,0,0,0,3.5-2.638C819.9,740.053,818.726,738.954,817.322,738.954Z" transform="translate(-520.681 -463.882)" fill="#3f3d56"/>
  <path id="Path_11757" data-name="Path 11757" d="M691.074,740.194a1.349,1.349,0,0,0-1.458-1.259H678.747c-1.369,0-2.523,1.479-2.523,3.136a3.031,3.031,0,0,0,3.442,2.715l10.407-3.172A1.306,1.306,0,0,0,691.074,740.194Z" transform="translate(-446.148 -463.868)" fill="#3f3d56"/>
  <path id="Path_11758" data-name="Path 11758" d="M711.365,745.3l-10.734,7.467a4.985,4.985,0,0,0-.926.671,4.064,4.064,0,0,0-.208,5.743q.1.108.208.208a4.536,4.536,0,0,0,6.229,0,4.754,4.754,0,0,0,.617-.722l8.109-10.589a2.035,2.035,0,0,0-.309-2.633A2.315,2.315,0,0,0,711.365,745.3Z" transform="translate(-458.98 -467.277)" fill="#3f3d56"/>
  <path id="Path_11759" data-name="Path 11759" d="M753.206,707.453a1.153,1.153,0,0,0,.2-.62c0-1.307-2.576-2.216-5.763-2.216s-5.761.908-5.761,2.216a1.1,1.1,0,0,0,.144.517l2.809,5.8h0c.322.547,1.482.929,2.809.926,1.5,0,2.738-.473,2.863-1.078Z" transform="translate(-484.125 -444.022)" fill="#3f3d56"/>
  <path id="Path_11760" data-name="Path 11760" d="M791.809,711.571a9.683,9.683,0,0,0-6.231,0,5.057,5.057,0,0,0-.617.308l-8.1,4.526c-.551.359-.421.833.309,1.128a4.848,4.848,0,0,0,2.971.066l10.731-3.187a9.181,9.181,0,0,0,.918-.285C793.477,713.561,793.5,712.286,791.809,711.571Z" transform="translate(-504.159 -447.746)" fill="#3f3d56"/>
  <path id="Path_11761" data-name="Path 11761" d="M817.649,724.731c0-.7-2.006-1.269-3.5-1.121L803.9,724.958c-.613.086-1.068.285-1.068.6s.668.535,1.37.535h10.868C816.476,726.094,817.649,725.627,817.649,724.731Z" transform="translate(-519.38 -454.994)" fill="#3f3d56"/>
  <path id="Path_11762" data-name="Path 11762" d="M687.822,724.96l-10.407-1.348c-1.494-.148-3.442.449-3.442,1.154s1.154,1.333,2.523,1.333h10.868c.756,0,1.458-.207,1.458-.535S688.5,725.045,687.822,724.96Z" transform="translate(-444.847 -454.995)" fill="#3f3d56"/>
  <path id="Path_11763" data-name="Path 11763" d="M712.1,717.561c.759-.3.849-.753.309-1.119l-8.109-4.5a4.254,4.254,0,0,0-.617-.307,9.48,9.48,0,0,0-6.229,0q-.108.043-.208.088c-1.528.7-1.435,1.791.208,2.441a7.122,7.122,0,0,0,.926.285l10.734,3.173a4.905,4.905,0,0,0,2.986-.062Z" transform="translate(-457.679 -447.776)" fill="#3f3d56"/>
  <path id="Path_11764" data-name="Path 11764" d="M747.125,649.255c0,16.764-9.343,17.074-20.868,17.074s-30.447-3.316-20.868-17.074c10.1-14.51,27.435-42.168,20.868-43.633C726.257,605.622,747.125,632.491,747.125,649.255Z" transform="translate(-461.502 -386.762)" fill="#f9a825"/>
  <path id="Path_11765" data-name="Path 11765" d="M751.825,709.889c0,6.636-3.7,6.758-8.26,6.758s-12.052-1.313-8.26-6.758c4-5.744,10.86-16.692,8.26-17.271C743.565,692.618,751.825,703.253,751.825,709.889Z" transform="translate(-479.721 -437.081)" fill="#ff6584" opacity="0.5"/>
  <path id="Path_11766" data-name="Path 11766" d="M637.829,608.126v3a5.375,5.375,0,0,1-5.042,5.359l-57.632,3.512a5.364,5.364,0,0,1-5.692-5.3l-.139-12.319,34.862-.565Z" transform="translate(-384.318 -384.56)" fill="#3f3d56"/>
  <path id="Path_11767" data-name="Path 11767" d="M665.227,591.744l-26-13.5a.952.952,0,0,1-.485-.616l-5.64-22.731a5.457,5.457,0,0,1,3.493-6.464l1.359-.476a2.345,2.345,0,0,1,3.034,1.586l5.559,20.013a.952.952,0,0,0,.31.478l21.184,17.553a.952.952,0,0,1,.178,1.27l-1.768,2.584A.952.952,0,0,1,665.227,591.744Z" transform="translate(-421.113 -353.33)" fill="#e6e6e6"/>
  <path id="Path_11768" data-name="Path 11768" d="M614.074,515.308c-12.61-6.639-25.81-9.973-39.959-7.992,4.265-7.228,7.433-13.911,7.221-18.914a9.847,9.847,0,0,1,3.863-8.389,11.954,11.954,0,0,1,7.125-2.351h0a9.79,9.79,0,0,1,7.251-.288,7.625,7.625,0,0,1,4.423,4.38,6.938,6.938,0,0,0,3.036,3.1,8.519,8.519,0,0,1,3.287,3.434,5.642,5.642,0,0,1-.241,5.987C614.963,499.407,614.976,507.115,614.074,515.308Z" transform="translate(-387.089 -312.259)" fill="#2f2e41"/>
  <circle id="Ellipse_436" data-name="Ellipse 436" cx="8.833" cy="8.833" r="8.833" transform="translate(200.276 168.768)" fill="#ffb8b8"/>
  <path id="Path_11769" data-name="Path 11769" d="M622.333,532.958l-10.305,1.052c.553-6.025.771-11.585,0-15.773h10.305C620.376,524.9,620.547,529.657,622.333,532.958Z" transform="translate(-409.017 -336.218)" fill="#ffb8b8"/>
  <path id="Path_11770" data-name="Path 11770" d="M603.165,540.079q-.013,1.385-.059,2.74c-.215,6.467-1.029,12.289-3.246,16.577a14.909,14.909,0,0,1-1.606,2.508.072.072,0,0,1-.017.021,1.614,1.614,0,0,1-.139.169,11.923,11.923,0,0,1-1.505,1.556l-4.22,4.427-.194.2-1.231.822-6.341,4.224-15.228-8.183-.017-1.421-.017-1.455c3.385-4.8,5.5-11.037,6.838-18.141.367-1.944.679-3.955.944-6.02.181-1.429.341-2.888.481-4.368a2.334,2.334,0,0,1,.443-1.261,0,0,0,0,1,0,0h0c.649-.826,1.939-.81,3.5-.894,2.188-.118,4.342-1.252,6.278-.181a1.129,1.129,0,0,1,.139.076l5.679,6.307,2.61-2.812.122-.131,5.375,2.3a2.482,2.482,0,0,1,1.408,2.938Z" transform="translate(-384.329 -343.567)" fill="#e6e6e6"/>
  <path id="Path_11771" data-name="Path 11771" d="M591.2,614.437a8.531,8.531,0,0,1-.6,3.143l-1.559,3.936-13.854.843c-.148.008-.3.013-.438.013a5.371,5.371,0,0,1-5.253-5.308l-.1-8.563-.017-1.421,5.042,2.138,4.916-2.639a7.35,7.35,0,0,1,.822-.3,7.9,7.9,0,0,1,1.113-.266h0c.181-.03.363-.055.544-.072a8.521,8.521,0,0,1,5.864,1.589,8.409,8.409,0,0,1,2.407,2.707,1.99,1.99,0,0,1,.122.228,8.229,8.229,0,0,1,.75,1.99A8.632,8.632,0,0,1,591.2,614.437Z" transform="translate(-384.352 -386.925)" fill="#2f2e41"/>
  <path id="Path_11772" data-name="Path 11772" d="M481.279,479.874l1.843,8.455,11.2,9.632-9.884-10.095Z" transform="translate(-278.374 -277.561)" opacity="0.2"/>
  <path id="Path_11773" data-name="Path 11773" d="M456.836,489.352l3.365,13.67,9.885,3.576-9.254-4.627Z" transform="translate(-264.236 -283.043)" opacity="0.2"/>
  <path id="Path_11774" data-name="Path 11774" d="M623.7,494.58c-6.51-3-13.87-3.849-20.4-.631l.841-7.571,14.3-2.313Z" transform="translate(-403.968 -316.453)" fill="#2f2e41"/>
  <path id="Path_11775" data-name="Path 11775" d="M579.639,565.064l-47.871-8.224.587-2.892,47.284,11.116Z" transform="translate(-307.577 -320.406)" fill="#3f3d56"/>
  <path id="Path_11776" data-name="Path 11776" d="M669.47,638.225h0a3.429,3.429,0,0,1-5.384-.92l-3.172-6.09,1.262-2.734,6.8,4.352a3.429,3.429,0,0,1,.494,5.392Z" transform="translate(-437.294 -399.984)" fill="#ffb8b8"/>
  <path id="Path_11777" data-name="Path 11777" d="M614.345,576.778l-26-13.5a.952.952,0,0,1-.485-.615l-5.64-22.731a5.456,5.456,0,0,1,3.493-6.464l1.359-.476a2.345,2.345,0,0,1,3.034,1.586l5.559,20.013a.951.951,0,0,0,.31.478l21.184,17.553a.952.952,0,0,1,.178,1.27l-1.768,2.584A.952.952,0,0,1,614.345,576.778Z" transform="translate(-391.683 -344.674)" fill="#e6e6e6"/>
  <path id="Path_11778" data-name="Path 11778" d="M753.067,662.764a.887.887,0,0,0,1.04-.694l.48-2.4a.884.884,0,0,0-.693-1.04l-6.949-1.389a.886.886,0,0,0-1.04.694l-.48,2.4a.884.884,0,0,0,.693,1.04Z" transform="translate(-486.165 -416.609)" fill="#e6e6e6"/>
</svg>
