<svg xmlns="http://www.w3.org/2000/svg" width="41.691" height="41.691" viewBox="0 0 41.691 41.691">
  <path id="twitter" d="M0,0V41.691H41.691V0ZM32.322,14.959q.017.381.017.766c0,7.825-5.956,16.848-16.848,16.848a16.758,16.758,0,0,1-9.077-2.661,11.951,11.951,0,0,0,8.767-2.452,5.927,5.927,0,0,1-5.532-4.112,5.926,5.926,0,0,0,2.674-.1,5.925,5.925,0,0,1-4.75-5.806c0-.025,0-.05,0-.075a5.9,5.9,0,0,0,2.682.741A5.928,5.928,0,0,1,8.424,10.2a16.812,16.812,0,0,0,12.205,6.187,5.925,5.925,0,0,1,10.09-5.4,11.852,11.852,0,0,0,3.76-1.437,5.939,5.939,0,0,1-2.6,3.276,11.841,11.841,0,0,0,3.4-.933A12.025,12.025,0,0,1,32.322,14.959Z" fill="#fff" fill-rule="evenodd"/>
</svg>
